<?xml version="1.0" standalone="no"?>
<!DOCTYPE svg PUBLIC "-//W3C//DTD SVG 20010904//EN" "http://www.w3.org/TR/2001/REC-SVG-20010904/DTD/svg10.dtd">
<!-- Created using Krita: http://krita.org -->
<svg xmlns="http://www.w3.org/2000/svg" 
    xmlns:xlink="http://www.w3.org/1999/xlink"
    xmlns:krita="http://krita.org/namespaces/svg/krita"
    xmlns:sodipodi="http://sodipodi.sourceforge.net/DTD/sodipodi-0.dtd"
    width="737.28pt"
    height="737.28pt"
    viewBox="0 0 737.28 737.28">
<defs/>
<path id="shape0" fill="#000000" fill-rule="evenodd" d="M398.88 133.2L398.353 133.229L397.874 133.345L397.443 133.544L397.058 133.826L396.717 134.187L396.417 134.626L396.158 135.14L395.938 135.726L395.755 136.384L395.606 137.11L395.491 137.902L395.407 138.758L395.354 139.676L395.328 140.654L395.328 141.688L395.353 142.778L395.401 143.921L395.47 145.114L395.558 146.356L395.664 147.643L395.785 148.975L395.92 150.348L396.068 151.76L396.226 153.21L396.393 154.695L396.566 156.212L396.745 157.759L396.927 159.335L397.111 160.937L397.295 162.563L397.477 164.21L397.656 165.876L397.829 167.559L397.995 169.257L398.152 170.968L398.298 172.689L398.432 174.418L398.552 176.153L398.656 177.891L398.742 179.631L398.809 181.37L398.855 183.106L398.878 184.836L398.876 186.559L398.847 188.272L398.791 189.973L398.704 191.659L398.586 193.329L398.434 194.981L398.247 196.611L398.023 198.218L397.76 199.799L397.457 201.353L397.112 202.877L396.722 204.368L396.287 205.825L395.804 207.246L395.271 208.627L394.688 209.968L394.052 211.265L393.361 212.516L392.614 213.72L391.809 214.873L390.941 216L390.009 217.125L389.015 218.249L387.96 219.374L386.848 220.499L385.68 221.625L384.458 222.754L383.186 223.886L381.864 225.021L380.496 226.16L379.083 227.305L377.628 228.455L376.134 229.611L374.601 230.775L373.032 231.946L371.431 233.126L369.798 234.316L368.136 235.515L366.448 236.725L364.735 237.946L363 239.18L361.245 240.426L359.472 241.686L357.684 242.961L355.882 244.25L354.069 245.555L352.247 246.876L350.419 248.215L348.586 249.571L346.751 250.946L344.916 252.34L343.083 253.754L341.255 255.189L339.434 256.645L337.621 258.123L335.819 259.625L334.031 261.149L332.259 262.698L330.504 264.272L328.769 265.872L327.057 267.498L325.369 269.152L323.708 270.833L322.075 272.542L320.474 274.281L318.907 276.05L317.374 277.85L315.88 279.681L314.426 281.544L313.014 283.44L311.647 285.369L310.326 287.333L309.054 289.332L307.834 291.366L306.667 293.437L305.555 295.545L304.502 297.691L303.508 299.875L302.577 302.099L301.71 304.362L300.911 306.667L300.18 309.012L299.52 311.4L298.773 314.765L298.111 318.068L297.532 321.311L297.034 324.494L296.614 327.617L296.271 330.682L296.003 333.69L295.807 336.642L295.681 339.537L295.624 342.378L295.632 345.164L295.704 347.898L295.838 350.579L296.031 353.209L296.282 355.788L296.588 358.317L296.948 360.798L297.358 363.23L297.817 365.615L298.323 367.954L298.874 370.247L299.467 372.495L300.101 374.7L300.773 376.862L301.481 378.981L302.223 381.059L302.997 383.097L303.8 385.096L304.632 387.055L305.488 388.977L306.368 390.861L307.27 392.71L308.19 394.523L309.128 396.301L310.08 398.046L311.045 399.758L312.02 401.439L313.004 403.088L313.994 404.707L314.988 406.296L315.985 407.857L316.981 409.39L317.975 410.897L318.965 412.377L319.948 413.832L320.922 415.263L321.886 416.671L322.837 418.056L323.773 419.419L324.692 420.761L325.592 422.083L326.47 423.386L327.324 424.671L328.153 425.938L328.955 427.189L329.726 428.423L330.465 429.643L331.17 430.849L331.839 432.041L332.469 433.221L333.059 434.389L333.606 435.547L334.108 436.695L334.944 438.688L335.76 440.635L336.558 442.539L337.336 444.403L338.096 446.231L338.836 448.024L339.558 449.785L340.26 451.519L340.944 453.227L341.609 454.913L342.254 456.58L342.881 458.229L343.489 459.866L344.078 461.491L344.648 463.109L345.199 464.722L345.731 466.333L346.244 467.944L346.739 469.56L347.214 471.183L347.671 472.815L348.109 474.461L348.527 476.121L348.928 477.801L349.309 479.502L349.671 481.227L350.015 482.979L350.34 484.762L350.646 486.578L350.933 488.43L351.201 490.322L351.451 492.255L351.682 494.233L351.894 496.259L352.087 498.335L352.262 500.465L352.417 502.652L352.555 504.899L352.673 507.207L352.773 509.582L352.854 512.024L352.916 514.538L352.96 517.126L352.985 519.79L352.991 522.535L352.978 525.363L352.947 528.277L352.898 531.279L352.829 534.374L352.742 537.562L352.637 540.849L352.512 544.236L352.37 547.726L352.208 551.323L352.028 555.028L351.83 558.846L351.612 562.78L351.377 566.831L351.122 571.003L350.85 575.299L350.558 579.722L350.248 584.275L349.92 588.96L351.769 589.222L353.581 589.487L355.355 589.754L357.091 590.02L358.79 590.287L360.451 590.552L362.074 590.815L363.659 591.074L365.206 591.329L366.716 591.579L368.188 591.822L369.622 592.058L371.017 592.286L372.375 592.504L373.695 592.713L374.977 592.91L376.221 593.095L377.427 593.267L378.595 593.424L379.725 593.567L380.817 593.694L381.87 593.803L382.885 593.895L383.862 593.967L384.801 594.02L385.702 594.052L386.564 594.061L387.388 594.048L388.174 594.011L388.921 593.949L389.63 593.861L390.301 593.747L390.933 593.604L391.526 593.433L392.081 593.232L392.598 593.001L393.076 592.737L393.516 592.441L393.916 592.112L394.279 591.747L394.602 591.348L394.887 590.911L395.134 590.437L395.341 589.925L395.51 589.373L395.64 588.78L396.193 585.627L396.698 582.558L397.157 579.572L397.571 576.667L397.942 573.842L398.27 571.095L398.558 568.424L398.805 565.829L399.014 563.307L399.186 560.856L399.322 558.476L399.423 556.164L399.49 553.919L399.525 551.739L399.529 549.623L399.504 547.57L399.45 545.577L399.368 543.642L399.261 541.766L399.129 539.945L398.974 538.178L398.796 536.464L398.598 534.801L398.38 533.187L398.143 531.621L397.889 530.101L397.62 528.626L397.336 527.194L397.038 525.804L396.728 524.453L396.408 523.14L396.077 521.865L395.739 520.624L395.393 519.417L395.042 518.241L394.686 517.096L394.327 515.98L393.965 514.89L393.603 513.827L393.241 512.787L392.881 511.769L392.524 510.772L392.172 509.795L391.825 508.835L391.484 507.891L391.152 506.961L390.829 506.044L390.516 505.138L390.215 504.242L389.927 503.353L389.654 502.471L389.396 501.594L389.155 500.72L388.932 499.848L388.728 498.976L388.545 498.102L388.384 497.225L388.246 496.343L388.133 495.455L388.045 494.559L387.984 493.653L387.951 492.736L387.947 491.807L387.954 491.131L387.958 490.405L387.96 489.632L387.961 488.812L387.96 487.949L387.959 487.042L387.956 486.095L387.954 485.108L387.952 484.084L387.95 483.024L387.948 481.931L387.948 480.805L387.95 479.649L387.953 478.465L387.959 477.253L387.967 476.017L387.979 474.757L387.993 473.475L388.012 472.174L388.034 470.854L388.061 469.518L388.092 468.168L388.129 466.804L388.171 465.43L388.218 464.046L388.272 462.654L388.333 461.257L388.4 459.855L388.475 458.451L388.557 457.047L388.647 455.643L388.746 454.243L388.853 452.847L388.969 451.457L389.095 450.076L389.231 448.704L389.376 447.344L389.532 445.998L389.699 444.667L389.877 443.352L390.066 442.056L390.268 440.781L390.481 439.527L390.707 438.298L390.946 437.094L391.199 435.917L391.465 434.77L391.745 433.654L392.04 432.57L392.349 431.52L392.674 430.507L393.014 429.532L393.369 428.596L393.741 427.702L394.13 426.85L394.535 426.044L394.957 425.284L395.398 424.573L395.856 423.912L396.332 423.302L396.827 422.747L397.341 422.246L397.875 421.803L399.451 420.591L401.038 419.348L402.633 418.078L404.236 416.78L405.845 415.456L407.46 414.108L409.079 412.737L410.701 411.344L412.327 409.931L413.953 408.498L415.58 407.048L417.206 405.581L418.83 404.099L420.451 402.603L422.068 401.095L423.68 399.575L425.287 398.045L426.886 396.507L428.477 394.962L430.059 393.41L431.631 391.854L433.191 390.295L434.739 388.734L436.274 387.172L437.794 385.611L439.299 384.052L440.787 382.496L442.258 380.945L443.71 379.399L445.143 377.861L446.554 376.332L447.944 374.812L449.311 373.304L450.654 371.808L451.973 370.326L453.265 368.86L454.53 367.41L455.767 365.977L456.975 364.564L458.153 363.172L459.3 361.801L460.414 360.453L461.495 359.13L462.542 357.833L463.553 356.562L464.528 355.32L465.465 354.108L466.363 352.927L467.222 351.778L468.04 350.663L468.817 349.583L469.551 348.54L470.241 347.534L470.885 346.567L471.485 345.64L472.037 344.755L472.541 343.913L472.995 343.115L473.4 342.362L473.754 341.657L474.055 341L474.303 340.392L474.497 339.836L475.531 336.352L476.455 332.866L477.27 329.378L477.979 325.889L478.582 322.399L479.083 318.909L479.483 315.419L479.783 311.929L479.986 308.44L480.094 304.952L480.108 301.467L480.03 297.983L479.863 294.502L479.608 291.024L479.267 287.549L478.842 284.078L478.335 280.612L477.747 277.15L477.081 273.694L476.339 270.243L475.522 266.798L474.632 263.359L473.671 259.928L472.642 256.503L471.545 253.087L470.384 249.678L469.159 246.278L467.872 242.887L466.527 239.506L465.123 236.134L463.664 232.773L462.151 229.422L460.586 226.083L458.972 222.755L457.309 219.439L455.599 216.135L453.846 212.845L452.05 209.567L450.213 206.304L448.338 203.054L446.426 199.819L444.479 196.599L442.499 193.395L440.488 190.206L438.448 187.034L436.38 183.878L434.287 180.739L432.17 177.618L430.032 174.515L427.874 171.431L425.698 168.365L423.506 165.318L421.3 162.291L419.082 159.285L416.853 156.298L414.616 153.333L412.373 150.389L410.124 147.467L407.873 144.568L405.622 141.691L403.371 138.837L401.123 136.006L398.88 133.2M373.622 309.941L373.106 311.214L372.601 312.514L372.108 313.841L371.626 315.196L371.155 316.577L370.696 317.986L370.247 319.421L369.81 320.884L369.384 322.374L368.97 323.891L368.567 325.435L368.175 327.006L367.794 328.604L367.424 330.23L367.066 331.882L366.719 333.562L366.383 335.269L366.059 337.003L365.746 338.764L365.444 340.552L365.153 342.367L364.874 344.209L364.606 346.078L364.349 347.975L364.103 349.898L363.869 351.849L363.646 353.827L363.434 355.832L363.234 357.864L363.044 359.923L362.866 362.009L362.7 364.122L362.544 366.263L362.4 368.43L362.267 370.625L362.145 372.847L362.035 375.095L361.936 377.371L361.848 379.674L361.771 382.005L361.706 384.362L361.652 386.746L361.609 389.158L361.577 391.596L361.557 394.062L361.548 396.555L361.55 399.075L361.563 401.622L361.588 404.196L361.624 406.797L361.671 409.425L361.73 412.081L361.8 414.763L361.881 417.473L361.973 420.21L362.077 422.973L362.191 425.764L362.318 428.582L362.455 431.428L362.603 434.3L362.763 437.199L362.935 440.126L363.117 443.079L362.064 440.516L361.031 437.975L360.019 435.457L359.026 432.961L358.053 430.489L357.101 428.038L356.169 425.611L355.256 423.206L354.364 420.824L353.492 418.464L352.64 416.128L351.808 413.813L350.996 411.522L350.204 409.253L349.433 407.007L348.681 404.783L347.95 402.582L347.238 400.404L346.547 398.248L345.876 396.115L345.225 394.005L344.594 391.918L343.983 389.853L343.392 387.81L342.821 385.791L342.27 383.794L341.74 381.819L341.229 379.868L340.739 377.939L340.269 376.032L339.818 374.149L339.388 372.288L338.978 370.449L338.588 368.634L338.218 366.841L337.868 365.07L337.539 363.322L337.229 361.597L336.94 359.895L336.67 358.215L336.421 356.558L336.192 354.924L335.982 353.312L335.793 351.723L335.624 350.156L335.475 348.613L335.346 347.091L335.238 345.593L335.149 344.117L335.08 342.664L335.032 341.233L335.004 339.826L334.995 338.44L335.007 337.078L335.039 335.738L335.091 334.421L335.163 333.126L335.255 331.854L335.367 330.605L335.5 329.379L335.652 328.175L335.825 326.993L336.017 325.835L336.573 322.916L337.175 320.177L337.821 317.612L338.506 315.216L339.229 312.981L339.985 310.901L340.772 308.971L341.586 307.184L342.425 305.533L343.286 304.012L344.164 302.616L345.058 301.337L345.964 300.17L346.879 299.108L347.8 298.145L348.724 297.275L349.647 296.491L350.567 295.788L351.481 295.158L352.384 294.596L353.275 294.096L354.15 293.65L355.007 293.253L355.841 292.899L356.65 292.582L357.43 292.294L358.18 292.03L358.895 291.783L359.572 291.548L360.209 291.317L360.801 291.086L361.347 290.846L361.843 290.593L362.286 290.32L362.673 290.02L363 289.688L363.124 289.544L363.282 289.367L363.475 289.156L363.701 288.91L363.962 288.631L364.257 288.317L364.586 287.97L364.95 287.588L365.348 287.173L365.78 286.723L366.246 286.24L366.746 285.722L367.281 285.17L367.849 284.585L368.452 283.965L369.09 283.311L369.761 282.624L370.467 281.902L371.207 281.146L371.981 280.356L372.789 279.533L373.632 278.675L374.509 277.783L375.42 276.857L376.365 275.897L377.345 274.903L378.358 273.875L379.406 272.813L380.489 271.717L381.605 270.587L382.756 269.423L383.94 268.225L385.16 266.993L386.413 265.726L387.7 264.426L389.022 263.092L390.378 261.724L391.768 260.321L393.193 258.885L394.651 257.415L396.144 255.91L397.671 254.372L399.233 252.8L400.828 251.193L402.458 249.553L404.122 247.878L405.82 246.17L407.552 244.427L409.319 242.651L411.12 240.84L410.452 241.777L409.787 242.719L409.124 243.666L408.463 244.618L407.805 245.575L407.149 246.538L406.495 247.506L405.844 248.479L405.195 249.457L404.548 250.44L403.904 251.428L403.262 252.422L402.622 253.421L401.985 254.425L401.35 255.434L400.717 256.448L400.087 257.467L399.459 258.492L398.834 259.522L398.21 260.556L397.589 261.596L396.971 262.642L396.354 263.692L395.741 264.748L395.129 265.808L394.52 266.874L393.913 267.945L393.308 269.021L392.706 270.103L392.106 271.189L391.509 272.281L390.913 273.378L390.321 274.48L389.73 275.587L389.142 276.699L388.556 277.817L387.972 278.939L387.391 280.067L386.812 281.2L386.236 282.338L385.662 283.482L385.09 284.63L384.52 285.784L383.953 286.942L383.389 288.106L382.826 289.276L382.266 290.45L381.708 291.629L381.153 292.814L380.6 294.004L380.049 295.199L379.5 296.399L378.954 297.604L378.411 298.814L377.869 300.03L377.33 301.251L376.793 302.477L376.259 303.708L375.727 304.944L375.197 306.185L374.67 307.432L374.145 308.684L373.622 309.941"/><path id="shape1" transform="matrix(0.991148065759374 0.132761107789344 -0.132761107789344 0.991148065759374 100.401039305465 346.542351544439)" fill="#000000" fill-rule="evenodd" d="M0 12.5901C7.80994 4.46128 94.2366 -5.74602 106.56 3.95012C108.955 5.83423 108.876 9.76619 108.72 17.6301C90.288 23.6781 63.5239 31.9545 28.4276 42.4594C18.9517 32.503 2.96196 20.0139 0 12.5901"/><path id="shape0" transform="matrix(0.584845529803328 0.811144705594921 -0.811144706850262 0.584845531356336 261.476028764302 63.0339930201594)" fill="#000000" fill-rule="evenodd" d="M0 12.5901C7.80994 4.46128 94.2366 -5.74602 106.56 3.95012C108.955 5.83423 108.876 9.76619 108.72 17.6301C90.288 23.6781 63.5239 31.9545 28.4276 42.4594C18.9517 32.503 2.96196 20.0139 0 12.5901"/><path id="shape01" transform="matrix(-0.871295817171878 -0.490758215544471 -0.490758216947829 0.871295818592548 628.02445617336 501.467597453269)" fill="#000000" fill-rule="evenodd" d="M0 12.5901C7.80994 4.46128 94.2366 -5.74602 106.56 3.95012C108.955 5.83423 108.876 9.76619 108.72 17.6301C90.288 23.6781 63.5239 31.9545 28.4276 42.4594C18.9517 32.503 2.96196 20.0139 0 12.5901"/><path id="shape02" transform="matrix(-0.96647045756876 0.25677782892608 0.256777828653749 0.966470498695137 686.287090546026 227.439532699522)" fill="#000000" fill-rule="evenodd" d="M0 12.5901C7.80994 4.46128 94.2366 -5.74602 106.56 3.95012C108.955 5.83423 108.876 9.76619 108.72 17.6301C90.288 23.6781 63.5239 31.9545 28.4276 42.4594C18.9517 32.503 2.96196 20.0139 0 12.5901"/>
</svg>
