<?xml version="1.0" standalone="no"?>
<!DOCTYPE svg PUBLIC "-//W3C//DTD SVG 20010904//EN" "http://www.w3.org/TR/2001/REC-SVG-20010904/DTD/svg10.dtd">
<!-- Created using Krita: http://krita.org -->
<svg xmlns="http://www.w3.org/2000/svg" 
    xmlns:xlink="http://www.w3.org/1999/xlink"
    xmlns:krita="http://krita.org/namespaces/svg/krita"
    xmlns:sodipodi="http://sodipodi.sourceforge.net/DTD/sodipodi-0.dtd"
    width="737.28pt"
    height="737.28pt"
    viewBox="0 0 737.28 737.28">
<defs/>
<path id="shape0" transform="matrix(0.93989260224496 -0.341470198180173 0.341470198180173 0.93989260224496 -111.831461683009 149.845324914946)" fill="#000000" fill-rule="evenodd" d="M333 518.4L332.988 517.469L446.231 517.469L446.276 518.597L446.381 520.183L446.528 521.758L446.716 523.321L446.943 524.871L447.211 526.408L447.517 527.931L447.862 529.44L448.245 530.934L448.666 532.413L449.123 533.875L449.617 535.321L450.147 536.75L450.712 538.162L451.312 539.555L451.946 540.93L452.614 542.286L453.315 543.621L454.049 544.937L454.815 546.232L455.612 547.505L456.441 548.757L457.3 549.986L458.188 551.193L459.107 552.375L460.054 553.534L461.029 554.668L462.033 555.777L463.063 556.861L464.121 557.918L465.204 558.949L466.313 559.952L467.447 560.928L468.606 561.875L469.789 562.793L470.995 563.682L472.224 564.541L473.476 565.369L474.75 566.167L476.044 566.933L477.36 567.666L478.696 568.367L480.051 569.035L481.426 569.67L482.82 570.27L484.231 570.835L485.66 571.364L487.106 571.858L488.569 572.316L490.047 572.736L491.541 573.119L493.05 573.464L494.573 573.771L496.11 574.038L497.66 574.266L499.223 574.453L500.798 574.6L502.385 574.706L503.982 574.769L505.591 574.791L507.199 574.769L508.797 574.706L510.383 574.6L511.958 574.453L513.521 574.266L515.071 574.038L516.608 573.771L518.131 573.464L519.64 573.119L521.134 572.736L522.613 572.316L524.075 571.858L525.521 571.364L526.95 570.835L528.362 570.27L529.755 569.67L531.13 569.035L532.486 568.367L533.821 567.666L535.137 566.933L536.432 566.167L537.705 565.369L538.957 564.541L540.186 563.682L541.393 562.793L542.575 561.875L543.734 560.928L544.868 559.952L545.977 558.949L547.061 557.918L548.118 556.861L549.149 555.777L550.152 554.668L551.128 553.534L552.075 552.375L552.993 551.193L553.882 549.986L554.741 548.757L555.569 547.505L556.367 546.232L557.133 544.937L557.866 543.621L558.568 542.286L559.235 540.93L559.87 539.555L560.47 538.162L561.035 536.75L561.564 535.321L562.058 533.875L562.516 532.413L562.936 530.934L563.319 529.44L563.664 527.931L563.971 526.408L564.238 524.871L564.466 523.321L564.653 521.758L564.8 520.183L564.906 518.597L564.951 517.469L606.613 517.469L608.64 516.829L609.48 515.282L609.48 479.52L609.48 479.52L609.48 479.519L609.48 463.887L608.944 462.9L608.528 450.003L608.305 443.097L608.212 440.209L608.116 437.249L607.658 423.037L607.326 412.752L606.974 401.82L606.6 390.24L603.175 385.832L593.278 373.094L588.54 366.996L580.958 357.238L572.377 346.194L551.128 318.845L539.792 304.255L528.84 290.16L527.863 290.167L482.467 290.489L466.49 290.602L456.899 290.67L450.72 290.714L450.72 365.76L449.876 367.796L447.84 368.64L429.84 368.64L427.804 367.796L426.96 365.76L426.96 276.48L427.065 276.226L426.907 267.148L426.589 248.865L426.436 240.028L426.036 217.071L425.88 208.08L408.891 207.942L386.904 207.763L363.984 207.577L337.32 207.36L335.306 209.786L323.546 223.956L293.097 260.645L271.679 286.451L229.502 337.271L217.882 351.273L210.209 360.518L202.631 369.649L195.178 378.629L191.508 383.051L180.772 395.987L173.88 404.292L167.236 412.297L149.098 434.152L143.752 440.593L138.808 446.551L132.21 454.5L129.96 462.06L131.509 462.116L130.8 462.341L129.96 463.887L129.96 515.282L130.8 516.829L132.827 517.469L214.212 517.469L214.2 518.4L214.221 520.008L214.285 521.606L214.391 523.193L214.537 524.768L214.725 526.331L214.952 527.881L215.22 529.418L215.526 530.941L215.871 532.449L216.254 533.943L216.675 535.422L217.132 536.884L217.626 538.331L218.156 539.76L218.721 541.171L219.321 542.564L219.955 543.939L220.623 545.295L221.324 546.631L222.058 547.946L222.824 549.241L223.621 550.515L224.45 551.766L225.309 552.996L226.198 554.202L227.116 555.385L228.063 556.543L229.039 557.678L230.042 558.787L231.073 559.87L232.13 560.927L233.213 561.958L234.322 562.961L235.457 563.937L236.615 564.884L237.798 565.802L239.004 566.691L240.234 567.55L241.485 568.379L242.759 569.176L244.054 569.942L245.369 570.676L246.705 571.377L248.061 572.045L249.436 572.679L250.829 573.279L252.24 573.844L253.669 574.374L255.116 574.868L256.578 575.325L258.057 575.746L259.551 576.129L261.059 576.474L262.582 576.78L264.119 577.048L265.669 577.275L267.232 577.463L268.807 577.609L270.394 577.715L271.992 577.779L273.6 577.8L275.208 577.779L276.806 577.715L278.393 577.609L279.968 577.463L281.531 577.275L283.081 577.048L284.618 576.78L286.141 576.474L287.649 576.129L289.143 575.746L290.622 575.325L292.084 574.868L293.531 574.374L294.96 573.844L296.371 573.279L297.764 572.679L299.139 572.045L300.495 571.377L301.831 570.676L303.146 569.942L304.441 569.176L305.715 568.379L306.966 567.55L308.196 566.691L309.402 565.802L310.585 564.884L311.743 563.937L312.878 562.961L313.987 561.958L315.07 560.927L316.127 559.87L317.158 558.787L318.161 557.678L319.137 556.543L320.084 555.385L321.002 554.202L321.891 552.996L322.75 551.766L323.579 550.515L324.376 549.241L325.142 547.946L325.876 546.631L326.577 545.295L327.245 543.939L327.879 542.564L328.479 541.171L329.044 539.76L329.574 538.331L330.068 536.884L330.525 535.422L330.946 533.943L331.329 532.449L331.674 530.941L331.98 529.418L332.248 527.881L332.475 526.331L332.663 524.768L332.809 523.193L332.915 521.606L332.979 520.008L333 518.4M528.991 516.111L528.932 514.44L528.758 512.8L528.474 511.196L528.082 509.632L527.588 508.112L526.994 506.639L526.306 505.217L525.526 503.851L524.659 502.545L523.709 501.302L522.68 500.126L521.576 499.021L520.4 497.992L519.157 497.042L517.85 496.175L516.484 495.396L515.063 494.707L513.59 494.114L512.069 493.619L510.505 493.228L508.901 492.943L507.262 492.769L505.591 492.711L503.92 492.769L502.28 492.943L500.676 493.228L499.112 493.619L497.592 494.114L496.119 494.707L494.697 495.396L493.331 496.175L492.025 497.042L490.782 497.992L489.606 499.021L488.501 500.126L487.472 501.302L486.522 502.545L485.655 503.851L484.876 505.217L484.187 506.639L483.594 508.112L483.099 509.632L482.708 511.196L482.423 512.8L482.25 514.44L482.191 516.111L482.25 517.782L482.423 519.421L482.708 521.025L483.099 522.589L483.594 524.11L484.187 525.583L484.876 527.004L485.655 528.37L486.522 529.677L487.472 530.92L488.501 532.096L489.606 533.2L490.782 534.229L492.025 535.179L493.331 536.046L494.697 536.826L496.119 537.514L497.592 538.108L499.112 538.602L500.676 538.994L502.28 539.278L503.92 539.452L505.591 539.511L507.262 539.452L508.901 539.278L510.505 538.994L512.069 538.602L513.59 538.108L515.063 537.514L516.484 536.826L517.85 536.046L519.157 535.179L520.4 534.229L521.576 533.2L522.68 532.096L523.709 530.92L524.659 529.677L525.526 528.37L526.306 527.004L526.994 525.583L527.588 524.11L528.082 522.589L528.474 521.025L528.758 519.421L528.932 517.782L528.991 516.111M297 519.12L296.941 517.449L296.768 515.809L296.483 514.206L296.092 512.642L295.597 511.121L295.004 509.648L294.315 508.227L293.535 506.861L292.669 505.554L291.719 504.311L290.689 503.135L289.585 502.031L288.409 501.001L287.166 500.051L285.859 499.185L284.493 498.405L283.072 497.716L281.599 497.123L280.078 496.628L278.514 496.237L276.911 495.952L275.271 495.779L273.6 495.72L271.929 495.779L270.289 495.952L268.686 496.237L267.122 496.628L265.601 497.123L264.128 497.716L262.707 498.405L261.341 499.185L260.034 500.051L258.791 501.001L257.615 502.031L256.511 503.135L255.481 504.311L254.531 505.554L253.665 506.861L252.885 508.227L252.196 509.648L251.603 511.121L251.108 512.642L250.717 514.206L250.432 515.809L250.259 517.449L250.2 519.12L250.259 520.791L250.432 522.431L250.717 524.034L251.108 525.598L251.603 527.119L252.196 528.592L252.885 530.013L253.665 531.379L254.531 532.686L255.481 533.929L256.511 535.105L257.615 536.209L258.791 537.239L260.034 538.189L261.341 539.055L262.707 539.835L264.128 540.524L265.601 541.117L267.122 541.612L268.686 542.003L270.289 542.288L271.929 542.461L273.6 542.52L275.271 542.461L276.911 542.288L278.514 542.003L280.078 541.612L281.599 541.117L283.072 540.524L284.493 539.835L285.859 539.055L287.166 538.189L288.409 537.239L289.585 536.209L290.689 535.105L291.719 533.929L292.669 532.686L293.535 531.379L294.315 530.013L295.004 528.592L295.597 527.119L296.092 525.598L296.483 524.034L296.768 522.431L296.941 520.791L297 519.12"/>
</svg>
