<?xml version="1.0" standalone="no"?>
<!DOCTYPE svg PUBLIC "-//W3C//DTD SVG 20010904//EN" "http://www.w3.org/TR/2001/REC-SVG-20010904/DTD/svg10.dtd">
<!-- Created using Krita: http://krita.org -->
<svg xmlns="http://www.w3.org/2000/svg" 
    xmlns:xlink="http://www.w3.org/1999/xlink"
    xmlns:krita="http://krita.org/namespaces/svg/krita"
    xmlns:sodipodi="http://sodipodi.sourceforge.net/DTD/sodipodi-0.dtd"
    width="737.28pt"
    height="737.28pt"
    viewBox="0 0 737.28 737.28">
<defs/>
<path id="shape0" fill="#ffffff" fill-rule="evenodd" d="M114.12 64.08L623.16 64.08L624.982 64.1069L626.792 64.1872L628.59 64.3202L630.375 64.5053L632.147 64.7418L633.905 65.0291L635.649 65.3664L637.378 65.7532L639.091 66.1888L640.788 66.6725L642.469 67.2036L644.132 67.7816L645.777 68.4057L647.404 69.0753L649.012 69.7898L650.6 70.5484L652.168 71.3505L653.716 72.1955L655.242 73.0828L656.746 74.0115L658.228 74.9812L659.687 75.9911L661.122 77.0406L662.533 78.1289L663.92 79.2556L665.281 80.4198L666.616 81.6211L667.925 82.8585L669.207 84.1317L670.461 85.4398L671.687 86.7822L672.885 88.1583L674.053 89.5673L675.191 91.0088L676.299 92.4819L677.376 93.986L678.421 95.5205L679.434 97.0848L680.415 98.6781L681.362 100.3L682.275 101.949L683.154 103.626L683.998 105.329L684.806 107.057L685.578 108.811L686.313 110.589L687.011 112.392L687.671 114.217L688.293 116.064L688.876 117.934L689.419 119.825L689.922 121.736L690.384 123.667L690.805 125.617L691.184 127.586L691.521 129.573L691.814 131.577L692.064 133.597L692.27 135.633L692.431 137.685L692.547 139.751L692.617 141.832L692.64 143.925L692.64 632.235L692.617 634.328L692.547 636.409L692.431 638.475L692.27 640.527L692.064 642.563L691.814 644.583L691.521 646.587L691.184 648.574L690.805 650.543L690.384 652.493L689.922 654.424L689.419 656.335L688.876 658.226L688.293 660.096L687.671 661.943L687.011 663.768L686.313 665.571L685.578 667.349L684.806 669.103L683.998 670.831L683.154 672.534L682.275 674.211L681.362 675.86L680.415 677.482L679.434 679.075L678.421 680.639L677.376 682.174L676.299 683.678L675.191 685.151L674.053 686.593L672.885 688.002L671.687 689.378L670.461 690.72L669.207 692.028L667.925 693.301L666.616 694.539L665.281 695.74L663.92 696.904L662.533 698.031L661.122 699.119L659.687 700.169L658.228 701.179L656.746 702.148L655.242 703.077L653.716 703.964L652.168 704.809L650.6 705.612L649.012 706.37L647.404 707.085L645.777 707.754L644.132 708.378L642.469 708.956L640.788 709.488L639.091 709.971L637.378 710.407L635.649 710.794L633.905 711.131L632.147 711.418L630.375 711.655L628.59 711.84L626.792 711.973L624.982 712.053L623.16 712.08L114.12 712.08L112.298 712.053L110.488 711.973L108.69 711.84L106.905 711.655L105.133 711.418L103.375 711.131L101.631 710.794L99.9021 710.407L98.1889 709.971L96.4918 709.488L94.8114 708.956L93.1483 708.378L91.503 707.754L89.8762 707.085L88.2684 706.37L86.6801 705.612L85.1119 704.809L83.5645 703.964L82.0383 703.077L80.534 702.148L79.0521 701.179L77.5933 700.169L76.1579 699.119L74.7468 698.031L73.3603 696.904L71.9991 695.74L70.6638 694.539L69.3549 693.301L68.0731 692.028L66.8187 690.72L65.5926 689.378L64.3951 688.002L63.227 686.593L62.0887 685.151L60.9808 683.678L59.904 682.174L58.8587 680.639L57.8456 679.075L56.8652 677.482L55.9181 675.86L55.0049 674.211L54.1261 672.534L53.2823 670.831L52.4741 669.103L51.702 667.349L50.9667 665.571L50.2687 663.768L49.6086 661.943L48.9869 660.096L48.4042 658.226L47.8611 656.335L47.3581 654.424L46.8959 652.493L46.475 650.543L46.096 648.574L45.7594 646.587L45.4659 644.583L45.2159 642.563L45.0101 640.527L44.849 638.475L44.7333 636.409L44.6634 634.328L44.64 632.235L44.64 143.925L44.6634 141.832L44.7333 139.751L44.849 137.685L45.0101 135.633L45.2159 133.597L45.4659 131.577L45.7594 129.573L46.096 127.586L46.475 125.617L46.8959 123.667L47.3581 121.736L47.8611 119.825L48.4042 117.934L48.9869 116.064L49.6086 114.217L50.2687 112.392L50.9667 110.589L51.702 108.811L52.4741 107.057L53.2823 105.329L54.1261 103.626L55.0049 101.949L55.9181 100.3L56.8652 98.6781L57.8456 97.0848L58.8587 95.5205L59.904 93.986L60.9808 92.4819L62.0887 91.0088L63.227 89.5673L64.3951 88.1583L65.5926 86.7822L66.8187 85.4398L68.0731 84.1317L69.3549 82.8585L70.6638 81.6211L71.9991 80.4198L73.3603 79.2556L74.7468 78.1289L76.1579 77.0406L77.5933 75.9911L79.0521 74.9812L80.534 74.0115L82.0383 73.0828L83.5645 72.1955L85.1119 71.3505L86.6801 70.5484L88.2684 69.7898L89.8762 69.0753L91.503 68.4057L93.1483 67.7816L94.8114 67.2036L96.4918 66.6725L98.1889 66.1888L99.9021 65.7532L101.631 65.3664L103.375 65.0291L105.133 64.7418L106.905 64.5053L108.69 64.3202L110.488 64.1872L112.298 64.1069L114.12 64.08M378.171 523.376L377.841 522.505L484.278 483.836L484.705 484.881L485.346 486.336L486.022 487.766L486.732 489.171L487.475 490.55L488.251 491.904L489.059 493.23L489.899 494.531L490.769 495.804L491.669 497.05L492.598 498.268L493.557 499.459L494.542 500.621L495.556 501.755L496.595 502.86L497.661 503.935L498.751 504.981L499.867 505.998L501.005 506.984L502.167 507.939L503.352 508.864L504.558 509.757L505.785 510.619L507.032 511.449L508.299 512.248L509.585 513.013L510.889 513.746L512.211 514.446L513.55 515.112L514.904 515.745L516.275 516.344L517.66 516.908L519.059 517.438L520.471 517.932L521.897 518.391L523.334 518.815L524.783 519.203L526.242 519.554L527.711 519.868L529.19 520.146L530.677 520.387L532.172 520.589L533.674 520.754L535.183 520.881L536.697 520.969L538.217 521.018L539.741 521.028L541.269 520.998L542.8 520.929L544.333 520.819L545.868 520.669L547.404 520.478L548.94 520.246L550.476 519.973L552.01 519.657L553.543 519.3L555.074 518.9L556.601 518.458L558.125 517.972L559.643 517.443L561.148 516.873L562.628 516.268L564.083 515.627L565.513 514.951L566.918 514.241L568.297 513.498L569.651 512.722L570.977 511.914L572.278 511.074L573.551 510.204L574.797 509.304L576.016 508.375L577.206 507.417L578.368 506.431L579.502 505.418L580.607 504.378L581.682 503.312L582.728 502.222L583.745 501.107L584.731 499.968L585.686 498.806L586.611 497.621L587.504 496.415L588.366 495.188L589.197 493.941L589.995 492.674L590.76 491.388L591.493 490.084L592.193 488.762L592.86 487.424L593.492 486.069L594.091 484.699L594.655 483.313L595.185 481.914L595.679 480.502L596.139 479.076L596.562 477.639L596.95 476.191L597.301 474.731L597.616 473.262L597.893 471.783L598.134 470.296L598.336 468.801L598.501 467.299L598.628 465.791L598.716 464.276L598.765 462.756L598.775 461.232L598.746 459.704L598.676 458.174L598.566 456.64L598.416 455.105L598.225 453.57L597.993 452.033L597.72 450.498L597.405 448.963L597.047 447.43L596.647 445.899L596.205 444.372L595.862 443.297L635.02 429.07L636.707 427.776L636.968 426.036L624.756 392.423L624.756 392.423L624.756 392.423L619.418 377.73L618.577 376.985L613.782 365.006L611.214 358.591L610.141 355.908L609.04 353.158L603.756 339.957L591.563 309.493L586.839 306.52L573.186 297.927L566.651 293.814L556.193 287.231L544.356 279.781L515.045 261.332L499.409 251.49L484.302 241.981L483.386 242.322L440.829 258.126L425.851 263.688L416.859 267.027L411.067 269.178L436.693 339.713L436.596 341.915L434.97 343.403L418.052 349.55L415.849 349.452L414.361 347.826L383.875 263.913L383.887 263.638L380.638 255.159L374.096 238.084L370.934 229.83L362.72 208.39L359.503 199.993L343.488 205.664L322.761 213.004L301.156 220.656L276.02 229.557L274.956 232.525L268.742 249.859L241.332 326.309L219.044 388.476L212.903 405.604L208.848 416.914L204.844 428.084L200.905 439.069L198.966 444.477L193.292 460.302L189.65 470.461L186.139 480.254L176.554 506.989L173.729 514.868L171.116 522.156L167.63 531.881L168.097 539.755L169.572 539.279L168.982 539.732L168.721 541.472L186.27 589.778L187.588 590.944L189.712 590.854L266.205 563.064L266.512 563.943L267.081 565.447L267.686 566.927L268.327 568.382L269.003 569.813L269.713 571.217L270.456 572.597L271.232 573.95L272.04 575.277L272.88 576.577L273.75 577.85L274.65 579.096L275.58 580.315L276.538 581.505L277.524 582.668L278.537 583.801L279.576 584.906L280.642 585.982L281.733 587.028L282.848 588.044L283.987 589.03L285.149 589.985L286.333 590.91L287.539 591.804L288.766 592.666L290.013 593.496L291.28 594.294L292.566 595.06L293.871 595.793L295.192 596.492L296.531 597.159L297.886 597.792L299.256 598.39L300.641 598.954L302.04 599.484L303.453 599.979L304.878 600.438L306.315 600.861L307.764 601.249L309.223 601.6L310.692 601.915L312.171 602.192L313.658 602.433L315.153 602.636L316.655 602.801L318.164 602.927L319.678 603.015L321.198 603.064L322.722 603.074L324.25 603.045L325.781 602.975L327.314 602.866L328.849 602.716L330.385 602.525L331.921 602.293L333.457 602.019L334.992 601.704L336.524 601.346L338.055 600.946L339.582 600.504L341.106 600.018L342.625 599.489L344.129 598.92L345.609 598.314L347.064 597.673L348.494 596.998L349.899 596.288L351.279 595.544L352.632 594.768L353.959 593.96L355.259 593.121L356.532 592.251L357.778 591.35L358.997 590.421L360.187 589.463L361.349 588.477L362.483 587.464L363.588 586.424L364.664 585.359L365.71 584.268L366.726 583.153L367.712 582.014L368.667 580.852L369.592 579.668L370.485 578.462L371.347 577.235L372.178 575.987L372.976 574.72L373.742 573.434L374.474 572.13L375.174 570.808L375.841 569.47L376.473 568.115L377.072 566.745L377.636 565.36L378.166 563.961L378.66 562.548L379.12 561.123L379.543 559.686L379.931 558.237L380.282 556.778L380.597 555.308L380.874 553.83L381.115 552.343L381.318 550.848L381.482 549.346L381.609 547.837L381.697 546.322L381.746 544.803L381.756 543.279L381.727 541.751L381.657 540.22L381.548 538.687L381.398 537.152L381.207 535.616L380.975 534.08L380.701 532.544L380.386 531.009L380.028 529.476L379.628 527.946L379.186 526.418L378.7 524.895L378.171 523.376M561.599 454.299L560.974 452.749L560.251 451.267L559.436 449.857L558.534 448.521L557.55 447.26L556.489 446.079L555.356 444.978L554.157 443.96L552.896 443.028L551.579 442.184L550.21 441.43L548.795 440.769L547.338 440.203L545.845 439.735L544.321 439.366L542.771 439.1L541.2 438.938L539.613 438.883L538.015 438.938L536.411 439.104L534.806 439.384L533.206 439.781L531.616 440.296L530.065 440.922L528.583 441.645L527.173 442.46L525.837 443.362L524.576 444.346L523.395 445.407L522.294 446.54L521.276 447.739L520.344 449L519.5 450.317L518.746 451.686L518.085 453.101L517.52 454.558L517.051 456.051L516.683 457.575L516.416 459.125L516.254 460.696L516.2 462.283L516.254 463.881L516.42 465.485L516.7 467.089L517.097 468.689L517.612 470.28L518.238 471.831L518.961 473.312L519.776 474.723L520.678 476.059L521.662 477.319L522.723 478.501L523.856 479.602L525.055 480.62L526.316 481.552L527.633 482.396L529.002 483.149L530.417 483.81L531.874 484.376L533.367 484.845L534.891 485.213L536.441 485.48L538.012 485.641L539.599 485.696L541.197 485.642L542.801 485.476L544.405 485.195L546.006 484.799L547.596 484.283L549.147 483.657L550.629 482.934L552.039 482.119L553.375 481.217L554.635 480.233L555.817 479.173L556.918 478.04L557.936 476.841L558.868 475.58L559.712 474.263L560.466 472.894L561.127 471.478L561.692 470.022L562.161 468.529L562.529 467.005L562.796 465.455L562.958 463.884L563.012 462.297L562.958 460.699L562.792 459.095L562.512 457.49L562.115 455.89L561.599 454.299M344.581 536.346L343.955 534.795L343.232 533.314L342.417 531.903L341.515 530.567L340.531 529.307L339.47 528.125L338.337 527.024L337.138 526.006L335.877 525.074L334.56 524.23L333.191 523.477L331.776 522.816L330.319 522.25L328.826 521.781L327.302 521.413L325.752 521.146L324.181 520.985L322.594 520.93L320.996 520.984L319.392 521.15L317.788 521.431L316.188 521.827L314.597 522.343L313.046 522.969L311.565 523.692L310.154 524.507L308.818 525.409L307.558 526.393L306.376 527.453L305.275 528.586L304.257 529.785L303.325 531.046L302.481 532.363L301.728 533.732L301.067 535.148L300.501 536.604L300.032 538.097L299.664 539.621L299.397 541.171L299.236 542.742L299.181 544.329L299.235 545.927L299.401 547.531L299.682 549.136L300.078 550.736L300.594 552.327L301.22 553.877L301.943 555.359L302.758 556.769L303.66 558.105L304.644 559.366L305.704 560.547L306.837 561.648L308.036 562.666L309.297 563.598L310.614 564.442L311.983 565.196L313.399 565.857L314.855 566.423L316.348 566.891L317.872 567.26L319.422 567.526L320.993 567.688L322.58 567.742L324.178 567.688L325.782 567.522L327.387 567.242L328.987 566.845L330.578 566.33L332.128 565.704L333.61 564.981L335.02 564.166L336.356 563.264L337.617 562.28L338.798 561.219L339.899 560.086L340.917 558.887L341.849 557.626L342.693 556.309L343.447 554.94L344.108 553.525L344.674 552.068L345.142 550.575L345.511 549.051L345.777 547.501L345.939 545.93L345.994 544.343L345.939 542.745L345.773 541.141L345.493 539.537L345.096 537.936L344.581 536.346"/>
</svg>
